<svg width="500" height="500" viewBox="0 0 500 500" fill="none" xmlns="http://www.w3.org/2000/svg">
<path d="M307.941 125.882L303.539 100.574C302.431 93.8302 299.003 87.6845 293.846 83.1981C288.69 78.7116 282.13 76.1658 275.297 76L206.342 78.2007C179.934 79.301 168.197 94.7059 152.425 127.349L307.941 125.882Z" fill="#80C2FF"/>
<path d="M488.031 231.883C492.432 260.125 481.429 285.8 463.456 291.301L461.256 292.035H460.155C445.851 293.502 430.813 271.495 426.411 242.153C422.01 212.81 429.346 187.135 443.283 183.834H446.584C465.657 183.101 483.629 203.64 488.031 231.883Z" fill="#80C2FF"/>
<path d="M39.0894 300.838C44.2244 333.848 54.4943 387.765 96.6742 406.104C118.314 415.641 153.525 420.776 201.574 423.343C216.979 424.077 233.851 424.443 252.19 424.443C276.324 424.489 300.403 422.155 324.079 417.475C365.526 410.139 402.204 397.302 420.176 384.831C438.148 372.36 464.19 352.187 469.692 318.443C472.993 299.371 471.159 270.762 465.657 237.385C461.271 210.323 454.143 183.778 444.384 158.16C435.581 136.886 411.74 120.381 389 115.613C341.712 105.989 293.444 102.049 245.221 103.876C199.507 105.659 154.125 112.423 109.878 124.049C61.0964 137.253 39.0895 175.398 34.6881 196.672C26.9857 231.883 33.5877 267.827 39.0894 300.838Z" fill="url(#paint0_linear_79_9705)"/>
<path d="M201.574 423.343C216.979 424.076 233.851 424.443 252.19 424.443C276.324 424.489 300.403 422.154 324.079 417.474C332.912 409.938 340.145 400.709 345.352 390.332C349.754 381.896 342.418 377.862 335.816 378.962L328.48 380.062C303.233 383.974 277.737 386.058 252.19 386.298H240.086C228.349 387.398 222.847 390.699 218.813 399.502C214.778 408.305 208.543 417.474 201.574 423.343Z" fill="#80C2FF"/>
<path d="M110.245 253.523C112.924 270.479 117.476 287.085 123.816 303.038C126.926 310.483 131.782 317.069 137.975 322.24C144.167 327.411 151.514 331.015 159.394 332.748C182.868 338.249 223.947 344.118 284.1 341.55C344.252 338.983 380.563 328.713 402.204 321.744H403.671C426.778 314.042 431.913 297.536 426.411 259.758C420.909 221.979 413.941 196.305 408.806 183.467C403.671 170.63 395.235 158.159 379.83 154.125C350.854 147.156 316.377 140.554 255.857 143.855C195.338 147.156 156.46 156.325 134.819 163.661C120.515 168.429 110.245 179.066 108.778 194.104C108.486 194.534 108.356 195.054 108.411 195.571C106.523 214.887 107.139 234.365 110.245 253.523Z" fill="#4066CA"/>
<path d="M110.245 253.522C112.925 270.479 117.476 287.085 123.816 303.038C126.926 310.482 131.782 317.069 137.975 322.24C144.168 327.411 151.514 331.015 159.394 332.747C182.868 338.249 223.948 344.118 284.1 341.55C344.252 338.983 380.564 328.713 402.204 321.744H403.671C411.373 312.208 412.474 297.17 408.806 272.595C403.304 235.917 397.069 211.709 391.934 199.605C386.799 187.502 379.097 175.031 364.058 171.363C336.55 164.761 303.173 158.526 245.221 161.46C187.27 164.394 149.491 173.564 128.951 180.533C120.624 183.124 113.397 188.415 108.411 195.571C106.523 214.886 107.14 234.365 110.245 253.522Z" fill="black"/>
<path d="M320.229 231.043C313.904 225.66 312.715 216.67 317.573 210.962C322.43 205.254 331.496 204.991 337.82 210.374C344.145 215.756 345.334 224.747 340.477 230.455C335.619 236.162 326.554 236.426 320.229 231.043Z" fill="#45DB74"/>
<path d="M185.923 236.031C179.611 230.633 178.443 221.639 183.315 215.942C188.187 210.246 197.253 210.005 203.565 215.403C209.877 220.802 211.045 229.796 206.173 235.492C201.301 241.188 192.235 241.429 185.923 236.031Z" fill="#45DB74"/>
<path d="M308.674 250.956C309.622 256.385 309.393 261.955 308.003 267.289C306.613 272.623 304.095 277.596 300.618 281.873C297.141 286.15 292.786 289.63 287.848 292.079C282.911 294.529 277.505 295.889 271.996 296.07C260.208 296.512 248.66 292.669 239.489 285.251C230.318 277.833 224.145 267.343 222.113 255.724L308.674 250.956Z" fill="#45DB74"/>
<path d="M10.8474 276.997C6.44597 248.754 17.0827 223.08 35.055 217.578H38.356C52.6605 216.111 67.6985 238.118 72.4667 267.094C77.2349 296.069 69.1657 322.111 55.228 325.412H51.9269C33.221 326.145 15.2487 305.239 10.8474 276.997Z" fill="#80C2FF"/>
<defs>
<linearGradient id="paint0_linear_79_9705" x1="259.012" y1="105.05" x2="234.878" y2="596.648" gradientUnits="userSpaceOnUse">
<stop stop-color="#7FC1FF"/>
<stop offset="0.12" stop-color="#4D76E0"/>
<stop offset="0.32" stop-color="#669EEB"/>
<stop offset="0.44" stop-color="#3A63CD"/>
<stop offset="0.54" stop-color="#4F49CB"/>
<stop offset="0.73" stop-color="#0E32A3"/>
</linearGradient>
</defs>
</svg>
