<svg width="188" height="96" viewBox="0 0 188 96" fill="none" xmlns="http://www.w3.org/2000/svg">
<rect width="188" height="96" rx="6" fill="#1B1D22"/>
<path d="M7.6 15.4L3.88 11.68L7.6 7.948L11.32 11.68L7.6 15.4Z" fill="#0FA8CD"/>
<g clip-path="url(#clip0_476_17)">
<path d="M20.75 12C20.75 9.105 23.105 6.75 26 6.75C28.895 6.75 31.25 9.105 31.25 12C31.25 14.895 28.895 17.25 26 17.25C23.105 17.25 20.75 14.895 20.75 12ZM21.5154 11.625H23.0116C23.0511 10.9813 23.194 10.3482 23.435 9.75H22.1034C21.7705 10.3235 21.5696 10.9641 21.5154 11.625ZM23.7631 11.625H25.625V9.75H24.2547C23.976 10.3391 23.8095 10.9749 23.7635 11.625M25.625 12.375H23.7631C23.8091 13.0251 23.9757 13.6609 24.2544 14.25H25.625V12.375ZM25.625 15H24.6897C24.9549 15.3811 25.2694 15.7254 25.625 16.0237V15ZM27.1269 16.3575C27.9864 16.1345 28.7608 15.6622 29.3525 15H28.1997C27.9097 15.5019 27.5485 15.9592 27.1273 16.3575M28.565 14.25H29.8962V14.2508C30.2294 13.677 30.4304 13.0362 30.4846 12.375H28.9884C28.9488 13.0187 28.8061 13.6518 28.565 14.25ZM28.2365 12.375H26.375V14.25H27.7452C28.024 13.6609 28.1905 13.0251 28.2365 12.375ZM28.988 11.625H30.4843C30.43 10.9638 30.229 10.323 29.8959 9.74925V9.75H28.5646C28.8057 10.3482 28.9484 10.9813 28.988 11.625ZM27.7452 9.75H26.375V11.625H28.2369C28.1909 10.9749 28.0243 10.3391 27.7456 9.75M28.2001 9H29.3525C28.7616 8.33865 27.9885 7.86664 27.1302 7.64325C27.5502 8.04156 27.9103 8.49855 28.1994 9M26.375 7.97625V9H27.3102C27.0451 8.6189 26.7306 8.27465 26.375 7.97625ZM25.625 7.97625C25.2694 8.27465 24.9549 8.6189 24.6897 9H25.625V7.97625ZM26.375 15V16.0237C26.7306 15.7254 27.0451 15.3811 27.3102 15H26.375ZM22.1034 14.25H23.4361C23.1948 13.6519 23.0514 13.0188 23.0116 12.375H21.515C21.5712 13.0537 21.7786 13.6898 22.103 14.25M24.875 16.3579C24.4538 15.9594 24.0925 15.5021 23.8025 15H22.6475C23.2397 15.6627 24.015 16.1352 24.8754 16.3579M23.8002 9C24.0896 8.49863 24.4499 8.04177 24.8701 7.64362C24.0119 7.86691 23.2388 8.33879 22.6479 9H23.8002Z" fill="#83CBFF"/>
</g>
<path d="M40.6 16L42.88 7.24H44.332L46.6 16H45.508L44.932 13.672H42.28L41.704 16H40.6ZM42.496 12.76H44.704L44.032 10.06C43.904 9.548 43.804 9.12 43.732 8.776C43.66 8.432 43.616 8.208 43.6 8.104C43.584 8.208 43.54 8.432 43.468 8.776C43.396 9.12 43.296 9.544 43.168 10.048L42.496 12.76ZM48.2993 16V7.24H51.1193C51.9353 7.24 52.5833 7.476 53.0633 7.948C53.5513 8.412 53.7953 9.036 53.7953 9.82C53.7953 10.604 53.5513 11.232 53.0633 11.704C52.5833 12.168 51.9353 12.4 51.1193 12.4H49.3793V16H48.2993ZM49.3793 11.428H51.1193C51.5913 11.428 51.9673 11.284 52.2473 10.996C52.5353 10.7 52.6793 10.308 52.6793 9.82C52.6793 9.324 52.5353 8.932 52.2473 8.644C51.9673 8.356 51.5913 8.212 51.1193 8.212H49.3793V11.428ZM55.6506 16V15.016H57.4386V8.224H55.6506V7.24H60.3306V8.224H58.5426V15.016H60.3306V16H55.6506ZM72.4293 16.12C71.5813 16.12 70.9053 15.896 70.4013 15.448C69.8973 15 69.6453 14.384 69.6453 13.6H70.7253C70.7253 14.088 70.8813 14.472 71.1933 14.752C71.5053 15.024 71.9173 15.16 72.4293 15.16C72.9253 15.16 73.3213 15.016 73.6173 14.728C73.9133 14.44 74.0613 14.064 74.0613 13.6C74.0613 13.248 73.9653 12.944 73.7733 12.688C73.5893 12.424 73.3213 12.244 72.9693 12.148L71.6373 11.776C71.0853 11.616 70.6493 11.332 70.3293 10.924C70.0173 10.508 69.8613 10.02 69.8613 9.46C69.8613 8.996 69.9653 8.588 70.1733 8.236C70.3813 7.884 70.6733 7.612 71.0493 7.42C71.4253 7.22 71.8573 7.12 72.3453 7.12C72.8413 7.12 73.2773 7.22 73.6533 7.42C74.0373 7.612 74.3373 7.884 74.5533 8.236C74.7693 8.58 74.8773 8.98 74.8773 9.436H73.7973C73.7973 9.036 73.6613 8.712 73.3893 8.464C73.1173 8.208 72.7693 8.08 72.3453 8.08C71.9213 8.08 71.5773 8.208 71.3133 8.464C71.0493 8.712 70.9173 9.036 70.9173 9.436C70.9173 9.756 71.0013 10.032 71.1693 10.264C71.3453 10.488 71.5893 10.644 71.9013 10.732L73.2693 11.116C73.8533 11.276 74.3053 11.58 74.6253 12.028C74.9533 12.468 75.1172 12.992 75.1172 13.6C75.1172 14.368 74.8733 14.98 74.3853 15.436C73.8973 15.892 73.2453 16.12 72.4293 16.12ZM79.5766 16.12C78.8006 16.12 78.1726 15.888 77.6926 15.424C77.2206 14.952 76.9846 14.304 76.9846 13.48V11.92C76.9846 11.096 77.2206 10.452 77.6926 9.988C78.1726 9.516 78.8006 9.28 79.5766 9.28C80.0966 9.28 80.5486 9.384 80.9326 9.592C81.3246 9.8 81.6286 10.092 81.8446 10.468C82.0606 10.844 82.1686 11.288 82.1686 11.8V12.976H78.0406V13.6C78.0406 14.088 78.1806 14.476 78.4606 14.764C78.7406 15.044 79.1126 15.184 79.5766 15.184C79.9766 15.184 80.3046 15.108 80.5606 14.956C80.8246 14.796 80.9846 14.584 81.0406 14.32H82.1206C82.0486 14.872 81.7806 15.312 81.3166 15.64C80.8526 15.96 80.2726 16.12 79.5766 16.12ZM78.0406 12.136H81.1126V11.8C81.1126 11.28 80.9766 10.88 80.7046 10.6C80.4406 10.312 80.0646 10.168 79.5766 10.168C79.0886 10.168 78.7086 10.312 78.4366 10.6C78.1726 10.88 78.0406 11.28 78.0406 11.8V12.136ZM84.5159 16V9.4H85.5959V10.66H85.6199C85.6759 10.236 85.8559 9.9 86.1599 9.652C86.4639 9.404 86.8719 9.28 87.3839 9.28C88.0719 9.28 88.5999 9.488 88.9679 9.904C89.3439 10.312 89.5319 10.896 89.5319 11.656V12.22H88.4519V11.656C88.4519 10.696 87.9839 10.216 87.0479 10.216C86.5759 10.216 86.2159 10.352 85.9679 10.624C85.7199 10.896 85.5959 11.288 85.5959 11.8V16H84.5159ZM93.2592 16L91.0152 9.4H92.1792L93.6192 13.84C93.7072 14.104 93.7832 14.36 93.8472 14.608C93.9112 14.848 93.9592 15.036 93.9912 15.172C94.0312 15.036 94.0792 14.848 94.1352 14.608C94.1912 14.36 94.2592 14.104 94.3392 13.84L95.7792 9.4H96.9192L94.6752 16H93.2592ZM101.163 16.12C100.387 16.12 99.7585 15.888 99.2785 15.424C98.8065 14.952 98.5705 14.304 98.5705 13.48V11.92C98.5705 11.096 98.8065 10.452 99.2785 9.988C99.7585 9.516 100.387 9.28 101.163 9.28C101.683 9.28 102.135 9.384 102.519 9.592C102.911 9.8 103.215 10.092 103.431 10.468C103.647 10.844 103.755 11.288 103.755 11.8V12.976H99.6265V13.6C99.6265 14.088 99.7665 14.476 100.047 14.764C100.327 15.044 100.699 15.184 101.163 15.184C101.563 15.184 101.891 15.108 102.147 14.956C102.411 14.796 102.571 14.584 102.627 14.32H103.707C103.635 14.872 103.367 15.312 102.903 15.64C102.439 15.96 101.859 16.12 101.163 16.12ZM99.6265 12.136H102.699V11.8C102.699 11.28 102.563 10.88 102.291 10.6C102.027 10.312 101.651 10.168 101.163 10.168C100.675 10.168 100.295 10.312 100.023 10.6C99.7585 10.88 99.6265 11.28 99.6265 11.8V12.136ZM106.102 16V9.4H107.182V10.66H107.206C107.262 10.236 107.442 9.9 107.746 9.652C108.05 9.404 108.458 9.28 108.97 9.28C109.658 9.28 110.186 9.488 110.554 9.904C110.93 10.312 111.118 10.896 111.118 11.656V12.22H110.038V11.656C110.038 10.696 109.57 10.216 108.634 10.216C108.162 10.216 107.802 10.352 107.554 10.624C107.306 10.896 107.182 11.288 107.182 11.8V16H106.102ZM121.728 16V11.284H119.808V10.3H121.728V8.92C121.728 8.4 121.892 7.992 122.22 7.696C122.548 7.392 123 7.24 123.576 7.24H125.508V8.224H123.576C123.064 8.224 122.808 8.456 122.808 8.92V10.3H125.508V11.284H122.808V16H121.728ZM127.688 16V9.4H128.768V10.66H128.792C128.848 10.236 129.028 9.9 129.332 9.652C129.636 9.404 130.044 9.28 130.556 9.28C131.244 9.28 131.772 9.488 132.14 9.904C132.516 10.312 132.704 10.896 132.704 11.656V12.22H131.624V11.656C131.624 10.696 131.156 10.216 130.22 10.216C129.748 10.216 129.388 10.352 129.14 10.624C128.892 10.896 128.768 11.288 128.768 11.8V16H127.688ZM136.563 16.12C135.883 16.12 135.343 15.932 134.943 15.556C134.543 15.172 134.343 14.672 134.343 14.056C134.343 13.648 134.435 13.292 134.619 12.988C134.803 12.684 135.059 12.448 135.387 12.28C135.715 12.104 136.091 12.016 136.515 12.016H138.555V11.5C138.555 10.644 138.087 10.216 137.151 10.216C136.735 10.216 136.399 10.292 136.143 10.444C135.887 10.596 135.751 10.808 135.735 11.08H134.655C134.695 10.56 134.935 10.132 135.375 9.796C135.823 9.452 136.415 9.28 137.151 9.28C137.951 9.28 138.563 9.472 138.987 9.856C139.419 10.24 139.635 10.776 139.635 11.464V16H138.567V14.8H138.543C138.479 15.208 138.275 15.532 137.931 15.772C137.587 16.004 137.131 16.12 136.563 16.12ZM136.827 15.208C137.355 15.208 137.775 15.08 138.087 14.824C138.399 14.568 138.555 14.22 138.555 13.78V12.856H136.635C136.283 12.856 135.995 12.964 135.771 13.18C135.555 13.388 135.447 13.668 135.447 14.02C135.447 14.388 135.567 14.68 135.807 14.896C136.055 15.104 136.395 15.208 136.827 15.208ZM141.454 16V9.4H142.39V10.276H142.414C142.454 9.98 142.57 9.74 142.762 9.556C142.962 9.372 143.214 9.28 143.518 9.28C143.806 9.28 144.05 9.364 144.25 9.532C144.45 9.7 144.594 9.928 144.682 10.216H144.694C144.75 9.928 144.874 9.7 145.066 9.532C145.266 9.364 145.518 9.28 145.822 9.28C146.246 9.28 146.582 9.44 146.83 9.76C147.086 10.072 147.214 10.48 147.214 10.984V16H146.206V10.972C146.206 10.708 146.142 10.5 146.014 10.348C145.886 10.188 145.71 10.108 145.486 10.108C145.27 10.108 145.098 10.184 144.97 10.336C144.842 10.488 144.778 10.696 144.778 10.96V16H143.89V10.972C143.89 10.708 143.826 10.5 143.698 10.348C143.57 10.188 143.398 10.108 143.182 10.108C142.958 10.108 142.782 10.184 142.654 10.336C142.526 10.488 142.462 10.696 142.462 10.96V16H141.454ZM151.53 16.12C150.754 16.12 150.126 15.888 149.646 15.424C149.174 14.952 148.938 14.304 148.938 13.48V11.92C148.938 11.096 149.174 10.452 149.646 9.988C150.126 9.516 150.754 9.28 151.53 9.28C152.05 9.28 152.502 9.384 152.886 9.592C153.278 9.8 153.582 10.092 153.798 10.468C154.014 10.844 154.122 11.288 154.122 11.8V12.976H149.994V13.6C149.994 14.088 150.134 14.476 150.414 14.764C150.694 15.044 151.066 15.184 151.53 15.184C151.93 15.184 152.258 15.108 152.514 14.956C152.778 14.796 152.938 14.584 152.994 14.32H154.074C154.002 14.872 153.734 15.312 153.27 15.64C152.806 15.96 152.226 16.12 151.53 16.12ZM149.994 12.136H153.066V11.8C153.066 11.28 152.93 10.88 152.658 10.6C152.394 10.312 152.018 10.168 151.53 10.168C151.042 10.168 150.662 10.312 150.39 10.6C150.126 10.88 149.994 11.28 149.994 11.8V12.136ZM156.577 16L155.497 9.4H156.433L157.105 14.056C157.129 14.232 157.153 14.428 157.177 14.644C157.201 14.852 157.217 15.024 157.225 15.16C157.241 15.024 157.257 14.852 157.273 14.644C157.297 14.428 157.325 14.232 157.357 14.056L158.185 9.4H159.265L160.093 14.056C160.125 14.232 160.153 14.428 160.177 14.644C160.209 14.852 160.229 15.024 160.237 15.16C160.253 15.024 160.273 14.852 160.297 14.644C160.321 14.428 160.345 14.232 160.369 14.056L161.065 9.4H161.953L160.825 16H159.637L158.881 11.44C158.849 11.216 158.817 10.98 158.785 10.732C158.761 10.476 158.741 10.28 158.725 10.144C158.717 10.28 158.697 10.476 158.665 10.732C158.633 10.98 158.597 11.216 158.557 11.44L157.765 16H156.577ZM165.92 16.096C165.128 16.096 164.496 15.864 164.024 15.4C163.56 14.936 163.328 14.288 163.328 13.456V11.944C163.328 11.104 163.56 10.456 164.024 10C164.488 9.536 165.12 9.304 165.92 9.304C166.72 9.304 167.352 9.536 167.816 10C168.28 10.456 168.512 11.104 168.512 11.944V13.456C168.512 14.288 168.276 14.936 167.804 15.4C167.34 15.864 166.712 16.096 165.92 16.096ZM165.92 15.136C166.392 15.136 166.76 15.004 167.024 14.74C167.296 14.476 167.432 14.088 167.432 13.576V11.824C167.432 11.312 167.296 10.924 167.024 10.66C166.76 10.396 166.392 10.264 165.92 10.264C165.456 10.264 165.088 10.396 164.816 10.66C164.544 10.924 164.408 11.312 164.408 11.824V13.576C164.408 14.088 164.544 14.476 164.816 14.74C165.088 15.004 165.456 15.136 165.92 15.136ZM170.86 16V9.4H171.94V10.66H171.964C172.02 10.236 172.2 9.9 172.504 9.652C172.808 9.404 173.216 9.28 173.728 9.28C174.416 9.28 174.944 9.488 175.312 9.904C175.688 10.312 175.876 10.896 175.876 11.656V12.22H174.796V11.656C174.796 10.696 174.328 10.216 173.392 10.216C172.92 10.216 172.56 10.352 172.312 10.624C172.064 10.896 171.94 11.288 171.94 11.8V16H170.86ZM177.875 16V7.24H178.955V12.124H180.215L182.063 9.4H183.299L181.175 12.544L183.419 16H182.159L180.239 13.06H178.955V16H177.875Z" fill="#C6C6C6"/>
<path d="M7 38.8V20.56H8.2V38.8H7Z" fill="#0FA8CD"/>
<path d="M23.6 33.4C22.896 33.4 22.26 33.24 21.692 32.92C21.132 32.592 20.688 32.148 20.36 31.588C20.04 31.02 19.88 30.384 19.88 29.68C19.88 28.968 20.04 28.332 20.36 27.772C20.688 27.212 21.132 26.772 21.692 26.452C22.26 26.124 22.896 25.96 23.6 25.96C24.312 25.96 24.948 26.124 25.508 26.452C26.068 26.772 26.508 27.212 26.828 27.772C27.156 28.332 27.32 28.968 27.32 29.68C27.32 30.384 27.156 31.02 26.828 31.588C26.508 32.148 26.068 32.592 25.508 32.92C24.948 33.24 24.312 33.4 23.6 33.4Z" fill="#05BC79"/>
<path d="M37.08 34V25.24H38.52L41.196 32.74C41.18 32.54 41.16 32.296 41.136 32.008C41.12 31.712 41.104 31.404 41.088 31.084C41.08 30.756 41.076 30.448 41.076 30.16V25.24H42.12V34H40.68L38.016 26.5C38.032 26.692 38.048 26.936 38.064 27.232C38.08 27.52 38.092 27.828 38.1 28.156C38.116 28.476 38.124 28.784 38.124 29.08V34H37.08ZM46.7953 34.096C46.0033 34.096 45.3713 33.864 44.8993 33.4C44.4353 32.936 44.2033 32.288 44.2033 31.456V29.944C44.2033 29.104 44.4353 28.456 44.8993 28C45.3633 27.536 45.9953 27.304 46.7953 27.304C47.5953 27.304 48.2273 27.536 48.6913 28C49.1553 28.456 49.3873 29.104 49.3873 29.944V31.456C49.3873 32.288 49.1513 32.936 48.6793 33.4C48.2153 33.864 47.5873 34.096 46.7953 34.096ZM46.7953 33.136C47.2673 33.136 47.6353 33.004 47.8993 32.74C48.1713 32.476 48.3073 32.088 48.3073 31.576V29.824C48.3073 29.312 48.1713 28.924 47.8993 28.66C47.6353 28.396 47.2673 28.264 46.7953 28.264C46.3313 28.264 45.9633 28.396 45.6913 28.66C45.4193 28.924 45.2833 29.312 45.2833 29.824V31.576C45.2833 32.088 45.4193 32.476 45.6913 32.74C45.9633 33.004 46.3313 33.136 46.7953 33.136ZM51.4946 34V27.4H52.5746V28.66H52.5866C52.6426 28.22 52.8226 27.88 53.1266 27.64C53.4306 27.4 53.8346 27.28 54.3386 27.28C55.0026 27.28 55.5306 27.484 55.9226 27.892C56.3146 28.3 56.5106 28.856 56.5106 29.56V34H55.4306V29.752C55.4306 29.248 55.3026 28.864 55.0466 28.6C54.7986 28.328 54.4586 28.192 54.0266 28.192C53.5786 28.192 53.2226 28.332 52.9586 28.612C52.7026 28.892 52.5746 29.288 52.5746 29.8V34H51.4946ZM61.1859 34.12C60.4099 34.12 59.7819 33.888 59.3019 33.424C58.8299 32.952 58.5939 32.304 58.5939 31.48V29.92C58.5939 29.096 58.8299 28.452 59.3019 27.988C59.7819 27.516 60.4099 27.28 61.1859 27.28C61.7059 27.28 62.1579 27.384 62.5419 27.592C62.9339 27.8 63.2379 28.092 63.4539 28.468C63.6699 28.844 63.7779 29.288 63.7779 29.8V30.976H59.6499V31.6C59.6499 32.088 59.7899 32.476 60.0699 32.764C60.3499 33.044 60.7219 33.184 61.1859 33.184C61.5859 33.184 61.9139 33.108 62.1699 32.956C62.4339 32.796 62.5939 32.584 62.6499 32.32H63.7299C63.6579 32.872 63.3899 33.312 62.9259 33.64C62.4619 33.96 61.8819 34.12 61.1859 34.12ZM59.6499 30.136H62.7219V29.8C62.7219 29.28 62.5859 28.88 62.3139 28.6C62.0499 28.312 61.6739 28.168 61.1859 28.168C60.6979 28.168 60.3179 28.312 60.0459 28.6C59.7819 28.88 59.6499 29.28 59.6499 29.8V30.136Z" fill="#05BC79"/>
<path d="M7 56.8V38.56H8.2V56.8H7Z" fill="#0FA8CD"/>
<path d="M23.6 51.4C22.896 51.4 22.26 51.24 21.692 50.92C21.132 50.592 20.688 50.148 20.36 49.588C20.04 49.02 19.88 48.384 19.88 47.68C19.88 46.968 20.04 46.332 20.36 45.772C20.688 45.212 21.132 44.772 21.692 44.452C22.26 44.124 22.896 43.96 23.6 43.96C24.312 43.96 24.948 44.124 25.508 44.452C26.068 44.772 26.508 45.212 26.828 45.772C27.156 46.332 27.32 46.968 27.32 47.68C27.32 48.384 27.156 49.02 26.828 49.588C26.508 50.148 26.068 50.592 25.508 50.92C24.948 51.24 24.312 51.4 23.6 51.4ZM23.6 50.8C24.192 50.8 24.724 50.664 25.196 50.392C25.668 50.12 26.04 49.748 26.312 49.276C26.584 48.804 26.72 48.272 26.72 47.68C26.72 47.088 26.584 46.556 26.312 46.084C26.04 45.612 25.668 45.24 25.196 44.968C24.724 44.696 24.192 44.56 23.6 44.56C23.008 44.56 22.476 44.696 22.004 44.968C21.532 45.24 21.16 45.612 20.888 46.084C20.616 46.556 20.48 47.088 20.48 47.68C20.48 48.272 20.616 48.804 20.888 49.276C21.16 49.748 21.532 50.12 22.004 50.392C22.476 50.664 23.008 50.8 23.6 50.8Z" fill="#727272"/>
<path d="M41.5875 53.25H42.3863C42.4763 53.25 42.5437 53.1637 42.5212 53.0812L41.8125 50.1H40.6875L41.4037 53.1075C41.4262 53.19 41.5012 53.25 41.5875 53.25ZM43.7925 53.25H42.9937C42.9037 53.25 42.8363 53.1637 42.8588 53.0812L43.5675 50.1H44.6925L43.9763 53.1075C43.9538 53.19 43.8788 53.25 43.7925 53.25Z" fill="#D3883E"/>
<path d="M44.0287 43.1925C44.2275 43.1475 44.4375 43.1212 44.6512 43.125C46.0687 43.14 47.2312 44.295 47.25 45.7125C47.2553 46.0931 47.1778 46.4703 47.0229 46.8179C46.8679 47.1656 46.6392 47.4754 46.3526 47.7259C46.4479 47.9869 46.5 48.2685 46.5 48.5625V50.265C46.5 50.5012 46.4513 50.7375 46.3538 50.955L45.4088 53.1637C45.39 53.2162 45.3375 53.25 45.2812 53.25H44.4637C44.3625 53.25 44.295 53.145 44.34 53.055L44.8275 51.9187C44.8725 51.8175 44.85 51.7012 44.7712 51.6225L43.8675 50.7187C43.8075 50.6587 42.2554 49.7662 42.1691 49.7662L40.8788 50.625V53.1075C40.8788 53.1862 40.815 53.25 40.7363 53.25H39.8925C39.8138 53.25 39.75 53.1862 39.75 53.1112V50.6175L39.0098 49.1257L38.2575 48.375C37.8577 48.375 37.4742 48.2162 37.1915 47.9335C36.9088 47.6507 36.75 47.2673 36.75 46.8675V46.785C36.75 46.6275 36.8775 46.5 37.035 46.5C37.1287 46.5 37.2112 46.4325 37.23 46.3387C37.3725 45.6075 37.9237 44.8987 38.625 44.7375V43.7212C38.625 43.5787 38.8012 43.515 38.895 43.62L40.1362 45.0022L40.038 45.3697L40.7021 45.7477C40.7586 45.8672 40.8016 45.993 40.8311 46.125L40.5889 46.4985L40.8788 46.8791V47.0325C40.8788 47.2012 41.055 47.3137 41.2088 47.2387L41.2538 47.217L41.6531 47.3647L41.9959 46.8559L42.3821 46.6684L42.7474 46.7854L43.113 46.3162C43.2373 46.2637 43.3651 46.222 43.4966 46.191L43.8555 46.6357L44.2313 46.1306C44.5694 46.1541 44.8989 46.2478 45.1988 46.4058C45.4986 46.5638 45.7622 46.7826 45.9727 47.0482C46.2868 46.723 46.4727 46.2952 46.4962 45.8437C46.5525 44.7675 45.69 43.875 44.625 43.875C44.4825 43.875 44.34 43.89 44.205 43.9237C44.0512 43.9575 43.8937 43.8937 43.8075 43.7625C43.8072 43.7607 43.8066 43.7595 43.8056 43.7587C43.8044 43.758 43.8037 43.7567 43.8037 43.755C43.7707 43.7054 43.7501 43.6485 43.7439 43.5891C43.7377 43.5298 43.7461 43.4699 43.7682 43.4145C43.7904 43.3592 43.8257 43.31 43.8711 43.2713C43.9164 43.2326 43.9706 43.2056 44.0287 43.1925Z" fill="#F3AD61"/>
<path d="M40.41 45.3112L40.1325 45H39.75C39.5437 45 39.375 45.1687 39.375 45.375C39.375 45.5813 39.5437 45.75 39.75 45.75H40.7051C40.6301 45.5887 40.5262 45.4425 40.41 45.3112ZM43.4887 46.1925C43.6762 46.1475 43.8675 46.125 44.0625 46.125C44.1187 46.125 44.1787 46.1288 44.2387 46.1325V47.3925C44.2387 47.5988 44.07 47.7675 43.8637 47.7675C43.6575 47.7675 43.4887 47.5988 43.4887 47.3925V46.1925ZM42.9937 46.3687L42.3675 46.6725V47.7038C42.3675 47.91 42.5362 48.0787 42.7425 48.0787C42.9487 48.0787 43.1175 47.91 43.1175 47.7038V46.3163C43.0762 46.3313 43.035 46.35 42.9937 46.3687ZM41.625 48.39C41.8312 48.39 42 48.2213 42 48.015V46.8525L41.25 47.2162V48.015C41.25 48.2213 41.4187 48.39 41.625 48.39ZM40.83 46.125C40.86 46.2562 40.875 46.3913 40.875 46.5338V46.875H40.3125C40.1062 46.875 39.9375 46.7063 39.9375 46.5C39.9375 46.2937 40.1062 46.125 40.3125 46.125H40.83Z" fill="#D3883E"/>
<path d="M39.2717 48.7136C39.2231 48.6122 39.1468 48.5265 39.0515 48.4666C38.9563 48.4067 38.8461 48.3749 38.7336 48.375H38.2573V48.9713C38.2572 49.382 38.41 49.7781 38.6859 50.0824C38.9618 50.3867 39.341 50.5774 39.7498 50.6175V49.5338L39.2717 48.7136ZM42.2398 49.5563H40.8748V50.625H43.6348C43.7211 50.625 43.8036 50.6588 43.8636 50.7188L43.3011 50.0512C43.0386 49.7362 42.6486 49.5563 42.2398 49.5563Z" fill="#FFDEA7"/>
<path d="M38.2575 46.3451C38.2575 46.2251 38.3411 46.1324 38.4413 46.1324C38.5448 46.1324 38.625 46.2292 38.625 46.3451V46.6623C38.625 46.7786 38.5448 46.8712 38.4413 46.8749C38.3378 46.8749 38.2575 46.7782 38.2575 46.6623V46.3451ZM37.29 46.4999C37.38 46.4999 37.4288 46.6012 37.3763 46.6724L36.8438 47.3887C36.7838 47.2274 36.75 47.0512 36.75 46.8674V46.7849C36.75 46.6274 36.8775 46.4999 37.035 46.4999H37.29Z" fill="#212121"/>
<path d="M57.14 52V43.24H62.3V44.224H58.196V47.128H61.988V48.112H58.22V52H57.14ZM66.2193 52.12C65.5393 52.12 64.9993 51.932 64.5993 51.556C64.1993 51.172 63.9993 50.672 63.9993 50.056C63.9993 49.648 64.0913 49.292 64.2753 48.988C64.4593 48.684 64.7153 48.448 65.0433 48.28C65.3713 48.104 65.7473 48.016 66.1713 48.016H68.2113V47.5C68.2113 46.644 67.7433 46.216 66.8073 46.216C66.3913 46.216 66.0553 46.292 65.7993 46.444C65.5433 46.596 65.4073 46.808 65.3913 47.08H64.3113C64.3513 46.56 64.5913 46.132 65.0313 45.796C65.4793 45.452 66.0713 45.28 66.8073 45.28C67.6073 45.28 68.2193 45.472 68.6433 45.856C69.0753 46.24 69.2913 46.776 69.2913 47.464V52H68.2233V50.8H68.1993C68.1353 51.208 67.9313 51.532 67.5873 51.772C67.2433 52.004 66.7873 52.12 66.2193 52.12ZM66.4833 51.208C67.0113 51.208 67.4313 51.08 67.7433 50.824C68.0553 50.568 68.2113 50.22 68.2113 49.78V48.856H66.2913C65.9393 48.856 65.6513 48.964 65.4273 49.18C65.2113 49.388 65.1033 49.668 65.1033 50.02C65.1033 50.388 65.2233 50.68 65.4633 50.896C65.7113 51.104 66.0513 51.208 66.4833 51.208ZM73.7266 52.096C72.9906 52.096 72.4186 51.932 72.0106 51.604C71.6106 51.268 71.4106 50.796 71.4106 50.188H72.4906C72.4906 50.492 72.5986 50.732 72.8146 50.908C73.0306 51.076 73.3346 51.16 73.7266 51.16H74.2546C74.6546 51.16 74.9626 51.072 75.1786 50.896C75.4026 50.72 75.5146 50.472 75.5146 50.152C75.5146 49.584 75.2546 49.264 74.7346 49.192L72.9106 48.928C72.4626 48.864 72.1146 48.68 71.8666 48.376C71.6186 48.064 71.4946 47.656 71.4946 47.152C71.4946 46.576 71.6906 46.124 72.0826 45.796C72.4826 45.468 73.0306 45.304 73.7266 45.304H74.2546C74.8946 45.304 75.4146 45.464 75.8146 45.784C76.2226 46.096 76.4426 46.508 76.4746 47.02H75.3826C75.3666 46.788 75.2546 46.596 75.0466 46.444C74.8466 46.292 74.5826 46.216 74.2546 46.216H73.7266C73.3586 46.216 73.0706 46.3 72.8626 46.468C72.6546 46.636 72.5506 46.864 72.5506 47.152C72.5506 47.616 72.7626 47.88 73.1866 47.944L74.8906 48.184C76.0106 48.344 76.5706 49 76.5706 50.152C76.5706 50.768 76.3666 51.248 75.9586 51.592C75.5586 51.928 74.9906 52.096 74.2546 52.096H73.7266ZM81.8459 52C81.3019 52 80.8659 51.844 80.5379 51.532C80.2099 51.212 80.0459 50.788 80.0459 50.26V46.384H78.1499V45.4H80.0459V43.54H81.1259V45.4H83.8259V46.384H81.1259V50.26C81.1259 50.484 81.1899 50.668 81.3179 50.812C81.4539 50.948 81.6299 51.016 81.8459 51.016H83.7659V52H81.8459ZM85.8013 52V51.016H88.1413V46.384H86.0413V45.4H89.2213V51.016H91.4413V52H85.8013ZM88.5613 44.212C88.2973 44.212 88.0893 44.144 87.9373 44.008C87.7853 43.872 87.7093 43.688 87.7093 43.456C87.7093 43.216 87.7853 43.028 87.9373 42.892C88.0893 42.748 88.2973 42.676 88.5613 42.676C88.8253 42.676 89.0333 42.748 89.1853 42.892C89.3373 43.028 89.4133 43.216 89.4133 43.456C89.4133 43.688 89.3373 43.872 89.1853 44.008C89.0333 44.144 88.8253 44.212 88.5613 44.212ZM94.5566 52V47.284H92.6366V46.3H94.5566V44.92C94.5566 44.4 94.7206 43.992 95.0486 43.696C95.3766 43.392 95.8286 43.24 96.4046 43.24H98.3366V44.224H96.4046C95.8926 44.224 95.6366 44.456 95.6366 44.92V46.3H98.3366V47.284H95.6366V52H94.5566ZM101.308 54.16L102.28 51.592L99.8199 45.4H100.984L102.544 49.48C102.608 49.64 102.668 49.808 102.724 49.984C102.78 50.16 102.82 50.312 102.844 50.44C102.868 50.312 102.908 50.16 102.964 49.984C103.02 49.808 103.076 49.64 103.132 49.48L104.584 45.4H105.724L102.436 54.16H101.308Z" fill="#5F5F60"/>
<path d="M7 74.8V56.56H8.2V74.8H7Z" fill="#0FA8CD"/>
<path d="M23.6 69.4C22.896 69.4 22.26 69.24 21.692 68.92C21.132 68.592 20.688 68.148 20.36 67.588C20.04 67.02 19.88 66.384 19.88 65.68C19.88 64.968 20.04 64.332 20.36 63.772C20.688 63.212 21.132 62.772 21.692 62.452C22.26 62.124 22.896 61.96 23.6 61.96C24.312 61.96 24.948 62.124 25.508 62.452C26.068 62.772 26.508 63.212 26.828 63.772C27.156 64.332 27.32 64.968 27.32 65.68C27.32 66.384 27.156 67.02 26.828 67.588C26.508 68.148 26.068 68.592 25.508 68.92C24.948 69.24 24.312 69.4 23.6 69.4ZM23.6 68.8C24.192 68.8 24.724 68.664 25.196 68.392C25.668 68.12 26.04 67.748 26.312 67.276C26.584 66.804 26.72 66.272 26.72 65.68C26.72 65.088 26.584 64.556 26.312 64.084C26.04 63.612 25.668 63.24 25.196 62.968C24.724 62.696 24.192 62.56 23.6 62.56C23.008 62.56 22.476 62.696 22.004 62.968C21.532 63.24 21.16 63.612 20.888 64.084C20.616 64.556 20.48 65.088 20.48 65.68C20.48 66.272 20.616 66.804 20.888 67.276C21.16 67.748 21.532 68.12 22.004 68.392C22.476 68.664 23.008 68.8 23.6 68.8Z" fill="#727272"/>
<path d="M45.0189 64.1306C45.1276 64.1156 45.2289 64.1831 45.2551 64.2881C45.2551 64.2881 45.9883 68.5792 45.9845 69.0705C45.9845 70.323 45.2461 71.2324 43.9805 71.2324C42.3988 71.2324 41.7305 69.9326 41.7305 68.6366C41.7305 68.487 41.7065 68.349 41.6634 68.22H41.1939C41.1817 68.2202 41.1701 68.2251 41.1615 68.2337C41.1529 68.2423 41.1479 68.2539 41.1478 68.2661V68.6449C41.1478 68.9516 40.8973 69.1995 40.6614 69.2269L40.619 69.2317C40.5268 69.2411 40.4536 69.2486 40.3858 69.3165C40.3858 69.3165 40.2084 69.5032 40.1506 69.5374C40.0929 69.5715 39.9346 69.6011 39.8574 69.5242C39.7805 69.4474 39.773 69.3142 39.8499 69.2374L39.9391 69.1492C39.9504 69.1342 39.9496 69.1069 39.9301 69.1069L39.737 69.1219C39.6946 69.122 39.6537 69.1063 39.6223 69.0778C39.5909 69.0494 39.5712 69.0103 39.5671 68.9681C39.5596 68.8781 39.5964 68.7919 39.737 68.7671L39.8645 68.7382C39.8833 68.7382 39.8949 68.715 39.8833 68.6996L39.803 68.6066C39.737 68.5444 39.7333 68.4105 39.8105 68.3336C39.887 68.2564 40.0366 68.2684 40.1135 68.3449L40.3404 68.5519C40.3741 68.5867 40.3963 68.6066 40.4401 68.6066C40.463 68.6066 40.4926 68.5875 40.4926 68.5605V68.118C40.4926 67.8067 40.76 67.5645 41.0713 67.5645H41.2363C41.1365 67.4625 41.0263 67.3657 40.91 67.2716C40.4094 66.8647 39.98 66.3742 39.7329 65.7892H38.8828C38.5021 65.7892 38.3101 65.496 38.3101 65.2646V64.9965C38.3105 64.9724 38.3022 64.949 38.2869 64.9305L38.0525 64.6815C37.9775 64.6065 37.9678 64.4602 38.0465 64.389C38.1215 64.3177 38.249 64.314 38.3203 64.389L38.3641 64.4104C38.3791 64.4254 38.4054 64.4141 38.4054 64.3954V64.3129C38.4054 64.2116 38.489 64.119 38.5899 64.119C38.7058 64.119 38.8006 64.2041 38.8006 64.3129V64.4104C38.8006 64.4329 38.8269 64.4404 38.8419 64.4254L38.8944 64.3815C38.9656 64.3102 39.0849 64.314 39.1599 64.3815C39.2386 64.4527 39.2349 64.5964 39.1599 64.6714L38.9431 64.9091C38.9345 64.918 38.9278 64.9286 38.9235 64.9402C38.9192 64.9519 38.9173 64.9642 38.918 64.9766V64.9957C38.918 65.0276 38.9173 65.0869 38.918 65.124C38.9191 65.163 38.9405 65.1679 38.9563 65.1679H39.5491C39.521 65.0049 39.507 64.8398 39.5071 64.6744V64.3669C39.5071 64.3484 39.5079 64.3294 39.5094 64.3099C39.5139 64.2356 39.5184 64.1602 39.4569 64.116C39.0894 63.8497 38.8119 63.3724 38.8006 62.8886C38.7871 62.2631 39.2158 61.7242 39.605 61.2345C39.6901 61.1272 39.7734 61.0226 39.8499 60.9199C40.0685 60.6255 40.5219 60.621 40.7874 60.9199C40.8461 60.9859 40.9058 61.0516 40.9663 61.1171C41.4076 61.5997 41.8595 62.0929 41.8595 62.8886C41.8595 63.3949 41.5918 63.8644 41.2055 64.1344C41.1268 64.1869 41.1155 64.2731 41.1155 64.3669V64.6556C41.1268 64.8731 41.1489 65.0302 41.1991 65.1664H41.8355C41.8625 65.1664 41.8621 65.1484 41.8618 65.1229V64.9582C41.8618 64.932 41.846 64.9095 41.8273 64.8907L41.6019 64.6699C41.5269 64.5949 41.5231 64.4632 41.6019 64.3916C41.6769 64.3204 41.8044 64.3054 41.8756 64.3804L41.9326 64.4066C41.9476 64.4216 41.9739 64.4141 41.9739 64.3916V64.2802C41.9739 64.2127 42.0384 64.1077 42.1524 64.1077C42.2754 64.1077 42.3568 64.191 42.3568 64.2802L42.3706 64.3916C42.3706 64.4104 42.3969 64.4216 42.4119 64.4066L42.4588 64.3804C42.53 64.3054 42.6504 64.3196 42.7179 64.3804C42.7854 64.4415 42.8191 64.5754 42.7441 64.6504L42.5259 64.9016L42.5221 64.9065C42.5071 64.9252 42.485 64.9522 42.485 64.9762V65.2485C42.485 65.5597 42.2375 65.802 41.888 65.802H41.7099L41.7995 65.8837C42.0973 66.1564 42.3988 66.432 42.6556 66.756L42.656 66.7312C42.656 66.4275 43.0276 66.381 43.3314 66.381H43.6145C43.6408 66.381 43.6584 66.3547 43.6584 66.3322V66.2475C43.6584 66.2475 43.6606 66.1462 43.6494 66.135L43.4225 65.8624C43.3501 65.79 43.355 65.6767 43.43 65.6017C43.505 65.5267 43.5924 65.5399 43.6494 65.565L43.7551 65.6205C43.7701 65.6317 43.7926 65.6205 43.7926 65.6017V65.5012C43.7926 65.3962 43.8864 65.3137 43.9914 65.3137C44.0964 65.3137 44.1886 65.3962 44.1886 65.5012V65.5927C44.1886 65.6115 44.2111 65.6227 44.2261 65.6115L44.3116 65.565C44.357 65.5372 44.4639 65.5177 44.5385 65.5927C44.6135 65.6677 44.612 65.7742 44.549 65.8624L44.4523 65.9809L44.3791 66.0776C44.3716 66.0851 44.3641 66.1001 44.3641 66.1114V66.4387C44.3641 66.8805 44.0214 67.0811 43.7176 67.0811H43.3764C43.3501 67.0811 43.3314 67.1212 43.3314 67.1437L43.3344 68.4412C43.3449 68.5555 43.3503 68.6749 43.3505 68.7994C43.3505 69.2749 43.5826 69.7654 44.1504 69.75C44.5554 69.7387 44.789 69.4511 44.789 68.7994L44.843 64.3444C44.843 64.2394 44.9143 64.1456 45.0193 64.1306" fill="#00D26A"/>
<path d="M39.75 62.4375C39.75 62.4872 39.7302 62.5349 39.6951 62.5701C39.6599 62.6052 39.6122 62.625 39.5625 62.625C39.5128 62.625 39.4651 62.6052 39.4299 62.5701C39.3948 62.5349 39.375 62.4872 39.375 62.4375C39.375 62.3878 39.3948 62.3401 39.4299 62.3049C39.4651 62.2698 39.5128 62.25 39.5625 62.25C39.6122 62.25 39.6599 62.2698 39.6951 62.3049C39.7302 62.3401 39.75 62.3878 39.75 62.4375ZM41.25 62.4375C41.25 62.4872 41.2302 62.5349 41.1951 62.5701C41.1599 62.6052 41.1122 62.625 41.0625 62.625C41.0128 62.625 40.9651 62.6052 40.9299 62.5701C40.8948 62.5349 40.875 62.4872 40.875 62.4375C40.875 62.3878 40.8948 62.3401 40.9299 62.3049C40.9651 62.2698 41.0128 62.25 41.0625 62.25C41.1122 62.25 41.1599 62.2698 41.1951 62.3049C41.2302 62.3401 41.25 62.3878 41.25 62.4375Z" fill="#1C1C1C"/>
<path d="M57.2 70V61.24H62.24V62.224H58.268V64.936H61.82V65.896H58.268V69.016H62.24V70H57.2ZM63.7953 70L66.1353 66.604L63.9393 63.4H65.2113L66.5193 65.44C66.5753 65.528 66.6273 65.624 66.6753 65.728C66.7313 65.832 66.7753 65.916 66.8073 65.98C66.8313 65.916 66.8673 65.832 66.9153 65.728C66.9713 65.624 67.0273 65.528 67.0833 65.44L68.3913 63.4H69.6633L67.4673 66.616L69.7953 70H68.5233L67.1073 67.84C67.0513 67.752 66.9953 67.652 66.9393 67.54C66.8913 67.42 66.8473 67.324 66.8073 67.252C66.7753 67.324 66.7273 67.42 66.6633 67.54C66.6073 67.652 66.5473 67.752 66.4833 67.84L65.0673 70H63.7953ZM71.4946 72.16V63.4H72.5746V64.66H72.5866C72.6426 64.228 72.8306 63.892 73.1506 63.652C73.4706 63.404 73.8786 63.28 74.3746 63.28C75.0386 63.28 75.5666 63.5 75.9586 63.94C76.3506 64.372 76.5466 64.968 76.5466 65.728V67.66C76.5466 68.42 76.3506 69.02 75.9586 69.46C75.5666 69.9 75.0386 70.12 74.3746 70.12C73.8786 70.12 73.4706 69.996 73.1506 69.748C72.8306 69.5 72.6426 69.164 72.5866 68.74H72.5506L72.5746 70.24V72.16H71.4946ZM74.0146 69.184C74.4706 69.184 74.8266 69.064 75.0826 68.824C75.3386 68.584 75.4666 68.196 75.4666 67.66V65.74C75.4666 65.196 75.3386 64.808 75.0826 64.576C74.8266 64.336 74.4706 64.216 74.0146 64.216C73.5746 64.216 73.2226 64.356 72.9586 64.636C72.7026 64.916 72.5746 65.304 72.5746 65.8V67.6C72.5746 68.096 72.7026 68.484 72.9586 68.764C73.2226 69.044 73.5746 69.184 74.0146 69.184ZM78.9299 70V63.4H80.0099V64.66H80.0339C80.0899 64.236 80.2699 63.9 80.5739 63.652C80.8779 63.404 81.2859 63.28 81.7979 63.28C82.4859 63.28 83.0139 63.488 83.3819 63.904C83.7579 64.312 83.9459 64.896 83.9459 65.656V66.22H82.8659V65.656C82.8659 64.696 82.3979 64.216 81.4619 64.216C80.9899 64.216 80.6299 64.352 80.3819 64.624C80.1339 64.896 80.0099 65.288 80.0099 65.8V70H78.9299ZM88.3813 70.12C87.6053 70.12 86.9773 69.888 86.4973 69.424C86.0253 68.952 85.7893 68.304 85.7893 67.48V65.92C85.7893 65.096 86.0253 64.452 86.4973 63.988C86.9773 63.516 87.6053 63.28 88.3813 63.28C88.9013 63.28 89.3533 63.384 89.7373 63.592C90.1293 63.8 90.4333 64.092 90.6493 64.468C90.8653 64.844 90.9733 65.288 90.9733 65.8V66.976H86.8453V67.6C86.8453 68.088 86.9853 68.476 87.2653 68.764C87.5453 69.044 87.9173 69.184 88.3813 69.184C88.7813 69.184 89.1093 69.108 89.3653 68.956C89.6293 68.796 89.7893 68.584 89.8453 68.32H90.9253C90.8533 68.872 90.5853 69.312 90.1213 69.64C89.6573 69.96 89.0773 70.12 88.3813 70.12ZM86.8453 66.136H89.9173V65.8C89.9173 65.28 89.7813 64.88 89.5093 64.6C89.2453 64.312 88.8693 64.168 88.3813 64.168C87.8933 64.168 87.5133 64.312 87.2413 64.6C86.9773 64.88 86.8453 65.28 86.8453 65.8V66.136ZM95.3126 70.096C94.5766 70.096 94.0046 69.932 93.5966 69.604C93.1966 69.268 92.9966 68.796 92.9966 68.188H94.0766C94.0766 68.492 94.1846 68.732 94.4006 68.908C94.6166 69.076 94.9206 69.16 95.3126 69.16H95.8406C96.2406 69.16 96.5486 69.072 96.7646 68.896C96.9886 68.72 97.1006 68.472 97.1006 68.152C97.1006 67.584 96.8406 67.264 96.3206 67.192L94.4966 66.928C94.0486 66.864 93.7006 66.68 93.4526 66.376C93.2046 66.064 93.0806 65.656 93.0806 65.152C93.0806 64.576 93.2766 64.124 93.6686 63.796C94.0686 63.468 94.6166 63.304 95.3126 63.304H95.8406C96.4806 63.304 97.0006 63.464 97.4006 63.784C97.8086 64.096 98.0286 64.508 98.0606 65.02H96.9686C96.9526 64.788 96.8406 64.596 96.6326 64.444C96.4326 64.292 96.1686 64.216 95.8406 64.216H95.3126C94.9446 64.216 94.6566 64.3 94.4486 64.468C94.2406 64.636 94.1366 64.864 94.1366 65.152C94.1366 65.616 94.3486 65.88 94.7726 65.944L96.4766 66.184C97.5966 66.344 98.1566 67 98.1566 68.152C98.1566 68.768 97.9526 69.248 97.5446 69.592C97.1446 69.928 96.5766 70.096 95.8406 70.096H95.3126ZM102.508 70.096C101.772 70.096 101.2 69.932 100.792 69.604C100.392 69.268 100.192 68.796 100.192 68.188H101.272C101.272 68.492 101.38 68.732 101.596 68.908C101.812 69.076 102.116 69.16 102.508 69.16H103.036C103.436 69.16 103.744 69.072 103.96 68.896C104.184 68.72 104.296 68.472 104.296 68.152C104.296 67.584 104.036 67.264 103.516 67.192L101.692 66.928C101.244 66.864 100.896 66.68 100.648 66.376C100.4 66.064 100.276 65.656 100.276 65.152C100.276 64.576 100.472 64.124 100.864 63.796C101.264 63.468 101.812 63.304 102.508 63.304H103.036C103.676 63.304 104.196 63.464 104.596 63.784C105.004 64.096 105.224 64.508 105.256 65.02H104.164C104.148 64.788 104.036 64.596 103.828 64.444C103.628 64.292 103.364 64.216 103.036 64.216H102.508C102.14 64.216 101.852 64.3 101.644 64.468C101.436 64.636 101.332 64.864 101.332 65.152C101.332 65.616 101.544 65.88 101.968 65.944L103.672 66.184C104.792 66.344 105.352 67 105.352 68.152C105.352 68.768 105.148 69.248 104.74 69.592C104.34 69.928 103.772 70.096 103.036 70.096H102.508ZM109.607 70.12C108.767 70.12 108.107 69.884 107.627 69.412C107.147 68.94 106.907 68.296 106.907 67.48H107.987C107.987 68.016 108.127 68.432 108.407 68.728C108.695 69.016 109.095 69.16 109.607 69.16C110.119 69.16 110.515 69.016 110.795 68.728C111.083 68.432 111.227 68.016 111.227 67.48V61.24H112.307V67.48C112.307 68.296 112.063 68.94 111.575 69.412C111.095 69.884 110.439 70.12 109.607 70.12ZM117.211 70.12C116.363 70.12 115.687 69.896 115.183 69.448C114.679 69 114.427 68.384 114.427 67.6H115.507C115.507 68.088 115.663 68.472 115.975 68.752C116.287 69.024 116.699 69.16 117.211 69.16C117.707 69.16 118.103 69.016 118.399 68.728C118.695 68.44 118.843 68.064 118.843 67.6C118.843 67.248 118.747 66.944 118.555 66.688C118.371 66.424 118.103 66.244 117.751 66.148L116.419 65.776C115.867 65.616 115.431 65.332 115.111 64.924C114.799 64.508 114.643 64.02 114.643 63.46C114.643 62.996 114.747 62.588 114.955 62.236C115.163 61.884 115.455 61.612 115.831 61.42C116.207 61.22 116.639 61.12 117.127 61.12C117.623 61.12 118.059 61.22 118.435 61.42C118.819 61.612 119.119 61.884 119.335 62.236C119.551 62.58 119.659 62.98 119.659 63.436H118.579C118.579 63.036 118.443 62.712 118.171 62.464C117.899 62.208 117.551 62.08 117.127 62.08C116.703 62.08 116.359 62.208 116.095 62.464C115.831 62.712 115.699 63.036 115.699 63.436C115.699 63.756 115.783 64.032 115.951 64.264C116.127 64.488 116.371 64.644 116.683 64.732L118.051 65.116C118.635 65.276 119.087 65.58 119.407 66.028C119.735 66.468 119.898 66.992 119.898 67.6C119.898 68.368 119.655 68.98 119.167 69.436C118.679 69.892 118.027 70.12 117.211 70.12Z" fill="#5F5F60"/>
<path d="M7 84.16V74.56H8.2V82.96H11.44V84.16H7Z" fill="#0FA8CD"/>
<defs>
<clipPath id="clip0_476_17">
<rect width="12" height="12" fill="white" transform="translate(20 6)"/>
</clipPath>
</defs>
</svg>
