<svg width="276" height="60" viewBox="0 0 276 60" fill="none" xmlns="http://www.w3.org/2000/svg">
<rect width="276" height="60" rx="6" fill="#1B1D22"/>
<path d="M7.6 15.4L3.88 11.68L7.6 7.948L11.32 11.68L7.6 15.4Z" fill="#0FA8CD"/>
<path d="M21.104 16V7.24H23.924C24.74 7.24 25.388 7.476 25.868 7.948C26.356 8.412 26.6 9.036 26.6 9.82C26.6 10.604 26.356 11.232 25.868 11.704C25.388 12.168 24.74 12.4 23.924 12.4H22.184V16H21.104ZM22.184 11.428H23.924C24.396 11.428 24.772 11.284 25.052 10.996C25.34 10.7 25.484 10.308 25.484 9.82C25.484 9.324 25.34 8.932 25.052 8.644C24.772 8.356 24.396 8.212 23.924 8.212H22.184V11.428ZM28.5393 16V9.4H29.6193V10.66H29.6433C29.6993 10.236 29.8793 9.9 30.1833 9.652C30.4873 9.404 30.8953 9.28 31.4073 9.28C32.0953 9.28 32.6233 9.488 32.9913 9.904C33.3673 10.312 33.5553 10.896 33.5553 11.656V12.22H32.4753V11.656C32.4753 10.696 32.0073 10.216 31.0713 10.216C30.5993 10.216 30.2393 10.352 29.9913 10.624C29.7433 10.896 29.6193 11.288 29.6193 11.8V16H28.5393ZM37.9906 16.096C37.1986 16.096 36.5666 15.864 36.0946 15.4C35.6306 14.936 35.3986 14.288 35.3986 13.456V11.944C35.3986 11.104 35.6306 10.456 36.0946 10C36.5586 9.536 37.1906 9.304 37.9906 9.304C38.7906 9.304 39.4226 9.536 39.8866 10C40.3506 10.456 40.5826 11.104 40.5826 11.944V13.456C40.5826 14.288 40.3466 14.936 39.8746 15.4C39.4106 15.864 38.7826 16.096 37.9906 16.096ZM37.9906 15.136C38.4626 15.136 38.8306 15.004 39.0946 14.74C39.3666 14.476 39.5026 14.088 39.5026 13.576V11.824C39.5026 11.312 39.3666 10.924 39.0946 10.66C38.8306 10.396 38.4626 10.264 37.9906 10.264C37.5266 10.264 37.1586 10.396 36.8866 10.66C36.6146 10.924 36.4786 11.312 36.4786 11.824V13.576C36.4786 14.088 36.6146 14.476 36.8866 14.74C37.1586 15.004 37.5266 15.136 37.9906 15.136ZM42.6659 18.16V17.176H44.1539C44.6499 17.176 45.0339 17.04 45.3059 16.768C45.5859 16.496 45.7259 16.116 45.7259 15.628V10.384H42.6059V9.4H46.8059V15.628C46.8059 16.404 46.5659 17.02 46.0859 17.476C45.6059 17.932 44.9619 18.16 44.1539 18.16H42.6659ZM46.1459 8.212C45.8819 8.212 45.6739 8.144 45.5219 8.008C45.3699 7.872 45.2939 7.688 45.2939 7.456C45.2939 7.216 45.3699 7.028 45.5219 6.892C45.6739 6.748 45.8819 6.676 46.1459 6.676C46.4099 6.676 46.6179 6.748 46.7699 6.892C46.9219 7.028 46.9979 7.216 46.9979 7.456C46.9979 7.688 46.9219 7.872 46.7699 8.008C46.6179 8.144 46.4099 8.212 46.1459 8.212ZM52.3813 16.12C51.6053 16.12 50.9773 15.888 50.4973 15.424C50.0253 14.952 49.7893 14.304 49.7893 13.48V11.92C49.7893 11.096 50.0253 10.452 50.4973 9.988C50.9773 9.516 51.6053 9.28 52.3813 9.28C52.9013 9.28 53.3533 9.384 53.7373 9.592C54.1293 9.8 54.4333 10.092 54.6493 10.468C54.8653 10.844 54.9733 11.288 54.9733 11.8V12.976H50.8453V13.6C50.8453 14.088 50.9853 14.476 51.2653 14.764C51.5453 15.044 51.9173 15.184 52.3813 15.184C52.7813 15.184 53.1093 15.108 53.3653 14.956C53.6293 14.796 53.7893 14.584 53.8453 14.32H54.9253C54.8533 14.872 54.5853 15.312 54.1213 15.64C53.6573 15.96 53.0773 16.12 52.3813 16.12ZM50.8453 12.136H53.9173V11.8C53.9173 11.28 53.7813 10.88 53.5093 10.6C53.2453 10.312 52.8693 10.168 52.3813 10.168C51.8933 10.168 51.5133 10.312 51.2413 10.6C50.9773 10.88 50.8453 11.28 50.8453 11.8V12.136ZM59.6726 16.12C58.8726 16.12 58.2326 15.896 57.7526 15.448C57.2726 15 57.0326 14.384 57.0326 13.6V11.8C57.0326 11.016 57.2726 10.4 57.7526 9.952C58.2326 9.504 58.8726 9.28 59.6726 9.28C60.4326 9.28 61.0446 9.484 61.5086 9.892C61.9806 10.3 62.2286 10.856 62.2526 11.56H61.1726C61.1486 11.136 61.0046 10.812 60.7406 10.588C60.4766 10.356 60.1206 10.24 59.6726 10.24C59.2006 10.24 58.8206 10.376 58.5326 10.648C58.2526 10.912 58.1126 11.292 58.1126 11.788V13.6C58.1126 14.096 58.2526 14.48 58.5326 14.752C58.8206 15.024 59.2006 15.16 59.6726 15.16C60.1206 15.16 60.4766 15.044 60.7406 14.812C61.0046 14.58 61.1486 14.256 61.1726 13.84H62.2526C62.2286 14.544 61.9806 15.1 61.5086 15.508C61.0446 15.916 60.4326 16.12 59.6726 16.12ZM67.4319 16C66.8879 16 66.4519 15.844 66.1239 15.532C65.7959 15.212 65.6319 14.788 65.6319 14.26V10.384H63.7359V9.4H65.6319V7.54H66.7119V9.4H69.4119V10.384H66.7119V14.26C66.7119 14.484 66.7759 14.668 66.9039 14.812C67.0399 14.948 67.2159 15.016 67.4319 15.016H69.3519V16H67.4319ZM78.6665 16V9.4H79.7465V10.66H79.7585C79.8145 10.22 79.9945 9.88 80.2985 9.64C80.6025 9.4 81.0065 9.28 81.5105 9.28C82.1745 9.28 82.7025 9.484 83.0945 9.892C83.4865 10.3 83.6825 10.856 83.6825 11.56V16H82.6025V11.752C82.6025 11.248 82.4745 10.864 82.2185 10.6C81.9705 10.328 81.6305 10.192 81.1985 10.192C80.7505 10.192 80.3945 10.332 80.1305 10.612C79.8745 10.892 79.7465 11.288 79.7465 11.8V16H78.6665ZM87.7818 16.12C87.1018 16.12 86.5618 15.932 86.1618 15.556C85.7618 15.172 85.5618 14.672 85.5618 14.056C85.5618 13.648 85.6538 13.292 85.8378 12.988C86.0218 12.684 86.2778 12.448 86.6058 12.28C86.9338 12.104 87.3098 12.016 87.7338 12.016H89.7738V11.5C89.7738 10.644 89.3058 10.216 88.3698 10.216C87.9538 10.216 87.6178 10.292 87.3618 10.444C87.1058 10.596 86.9698 10.808 86.9538 11.08H85.8738C85.9138 10.56 86.1538 10.132 86.5938 9.796C87.0418 9.452 87.6338 9.28 88.3698 9.28C89.1698 9.28 89.7818 9.472 90.2058 9.856C90.6378 10.24 90.8538 10.776 90.8538 11.464V16H89.7858V14.8H89.7618C89.6978 15.208 89.4938 15.532 89.1498 15.772C88.8058 16.004 88.3498 16.12 87.7818 16.12ZM88.0458 15.208C88.5738 15.208 88.9938 15.08 89.3058 14.824C89.6178 14.568 89.7738 14.22 89.7738 13.78V12.856H87.8538C87.5018 12.856 87.2138 12.964 86.9898 13.18C86.7738 13.388 86.6658 13.668 86.6658 14.02C86.6658 14.388 86.7858 14.68 87.0258 14.896C87.2738 15.104 87.6138 15.208 88.0458 15.208ZM92.6731 16V9.4H93.6091V10.276H93.6331C93.6731 9.98 93.7891 9.74 93.9811 9.556C94.1811 9.372 94.4331 9.28 94.7371 9.28C95.0251 9.28 95.2691 9.364 95.4691 9.532C95.6691 9.7 95.8131 9.928 95.9011 10.216H95.9131C95.9691 9.928 96.0931 9.7 96.2851 9.532C96.4851 9.364 96.7371 9.28 97.0411 9.28C97.4651 9.28 97.8011 9.44 98.0491 9.76C98.3051 10.072 98.4331 10.48 98.4331 10.984V16H97.4251V10.972C97.4251 10.708 97.3611 10.5 97.2331 10.348C97.1051 10.188 96.9291 10.108 96.7051 10.108C96.4891 10.108 96.3171 10.184 96.1891 10.336C96.0611 10.488 95.9971 10.696 95.9971 10.96V16H95.1091V10.972C95.1091 10.708 95.0451 10.5 94.9171 10.348C94.7891 10.188 94.6171 10.108 94.4011 10.108C94.1771 10.108 94.0011 10.184 93.8731 10.336C93.7451 10.488 93.6811 10.696 93.6811 10.96V16H92.6731ZM102.748 16.12C101.972 16.12 101.344 15.888 100.864 15.424C100.392 14.952 100.156 14.304 100.156 13.48V11.92C100.156 11.096 100.392 10.452 100.864 9.988C101.344 9.516 101.972 9.28 102.748 9.28C103.268 9.28 103.72 9.384 104.104 9.592C104.496 9.8 104.8 10.092 105.016 10.468C105.232 10.844 105.34 11.288 105.34 11.8V12.976H101.212V13.6C101.212 14.088 101.352 14.476 101.632 14.764C101.912 15.044 102.284 15.184 102.748 15.184C103.148 15.184 103.476 15.108 103.732 14.956C103.996 14.796 104.156 14.584 104.212 14.32H105.292C105.22 14.872 104.952 15.312 104.488 15.64C104.024 15.96 103.444 16.12 102.748 16.12ZM101.212 12.136H104.284V11.8C104.284 11.28 104.148 10.88 103.876 10.6C103.612 10.312 103.236 10.168 102.748 10.168C102.26 10.168 101.88 10.312 101.608 10.6C101.344 10.88 101.212 11.28 101.212 11.8V12.136Z" fill="#C6C6C6"/>
<path d="M115.72 16V9.4H116.656V10.276H116.68C116.72 9.98 116.836 9.74 117.028 9.556C117.228 9.372 117.48 9.28 117.784 9.28C118.072 9.28 118.316 9.364 118.516 9.532C118.716 9.7 118.86 9.928 118.948 10.216H118.96C119.016 9.928 119.14 9.7 119.332 9.532C119.532 9.364 119.784 9.28 120.088 9.28C120.512 9.28 120.848 9.44 121.096 9.76C121.352 10.072 121.48 10.48 121.48 10.984V16H120.472V10.972C120.472 10.708 120.408 10.5 120.28 10.348C120.152 10.188 119.976 10.108 119.752 10.108C119.536 10.108 119.364 10.184 119.236 10.336C119.108 10.488 119.044 10.696 119.044 10.96V16H118.156V10.972C118.156 10.708 118.092 10.5 117.964 10.348C117.836 10.188 117.664 10.108 117.448 10.108C117.224 10.108 117.048 10.184 116.92 10.336C116.792 10.488 116.728 10.696 116.728 10.96V16H115.72ZM124.331 18.16L125.303 15.592L122.843 9.4H124.007L125.567 13.48C125.631 13.64 125.691 13.808 125.747 13.984C125.803 14.16 125.843 14.312 125.867 14.44C125.891 14.312 125.931 14.16 125.987 13.984C126.043 13.808 126.099 13.64 126.155 13.48L127.607 9.4H128.747L125.459 18.16H124.331ZM131.071 12.52V11.56H134.911V12.52H131.071ZM140.57 16.12C140.074 16.12 139.666 16 139.346 15.76C139.026 15.512 138.838 15.172 138.782 14.74H138.77V16H137.69V7.24H138.77V9.16L138.746 10.66H138.758C138.822 10.236 139.014 9.9 139.334 9.652C139.662 9.404 140.074 9.28 140.57 9.28C141.234 9.28 141.762 9.5 142.154 9.94C142.546 10.38 142.742 10.98 142.742 11.74V13.672C142.742 14.424 142.546 15.02 142.154 15.46C141.762 15.9 141.234 16.12 140.57 16.12ZM140.21 15.184C140.666 15.184 141.022 15.064 141.278 14.824C141.534 14.584 141.662 14.196 141.662 13.66V11.74C141.662 11.196 141.534 10.808 141.278 10.576C141.022 10.336 140.666 10.216 140.21 10.216C139.77 10.216 139.418 10.356 139.154 10.636C138.898 10.916 138.77 11.304 138.77 11.8V13.6C138.77 14.096 138.898 14.484 139.154 14.764C139.418 15.044 139.77 15.184 140.21 15.184ZM147.381 16.096C146.589 16.096 145.957 15.864 145.485 15.4C145.021 14.936 144.789 14.288 144.789 13.456V11.944C144.789 11.104 145.021 10.456 145.485 10C145.949 9.536 146.581 9.304 147.381 9.304C148.181 9.304 148.813 9.536 149.277 10C149.741 10.456 149.973 11.104 149.973 11.944V13.456C149.973 14.288 149.737 14.936 149.265 15.4C148.801 15.864 148.173 16.096 147.381 16.096ZM147.381 15.136C147.853 15.136 148.221 15.004 148.485 14.74C148.757 14.476 148.893 14.088 148.893 13.576V11.824C148.893 11.312 148.757 10.924 148.485 10.66C148.221 10.396 147.853 10.264 147.381 10.264C146.917 10.264 146.549 10.396 146.277 10.66C146.005 10.924 145.869 11.312 145.869 11.824V13.576C145.869 14.088 146.005 14.476 146.277 14.74C146.549 15.004 146.917 15.136 147.381 15.136ZM155.237 16C154.693 16 154.257 15.844 153.929 15.532C153.601 15.212 153.437 14.788 153.437 14.26V10.384H151.541V9.4H153.437V7.54H154.517V9.4H157.217V10.384H154.517V14.26C154.517 14.484 154.581 14.668 154.709 14.812C154.845 14.948 155.021 15.016 155.237 15.016H157.157V16H155.237ZM159.072 17.32L163.332 6.04H164.472L160.212 17.32H159.072Z" fill="#727272"/>
<path d="M115 18.16H165.372V18.76H115V18.16Z" fill="#727272"/>
<path d="M7 38.8V20.56H8.2V38.8H7Z" fill="#0FA8CD"/>
<path d="M23.6 34.12C22.784 34.12 22.16 33.896 21.728 33.448C21.296 32.992 21.08 32.376 21.08 31.6V25.24H22.16V31.6C22.16 32.08 22.276 32.46 22.508 32.74C22.748 33.02 23.112 33.16 23.6 33.16C24.08 33.16 24.44 33.02 24.68 32.74C24.92 32.46 25.04 32.08 25.04 31.6V25.24H26.12V31.6C26.12 32.384 25.904 33 25.472 33.448C25.048 33.896 24.424 34.12 23.6 34.12ZM30.5313 34.096C29.7953 34.096 29.2233 33.932 28.8153 33.604C28.4153 33.268 28.2153 32.796 28.2153 32.188H29.2953C29.2953 32.492 29.4033 32.732 29.6193 32.908C29.8353 33.076 30.1393 33.16 30.5313 33.16H31.0593C31.4593 33.16 31.7673 33.072 31.9833 32.896C32.2073 32.72 32.3193 32.472 32.3193 32.152C32.3193 31.584 32.0593 31.264 31.5393 31.192L29.7153 30.928C29.2673 30.864 28.9193 30.68 28.6713 30.376C28.4233 30.064 28.2993 29.656 28.2993 29.152C28.2993 28.576 28.4953 28.124 28.8873 27.796C29.2873 27.468 29.8353 27.304 30.5313 27.304H31.0593C31.6993 27.304 32.2193 27.464 32.6193 27.784C33.0273 28.096 33.2473 28.508 33.2793 29.02H32.1873C32.1713 28.788 32.0593 28.596 31.8513 28.444C31.6513 28.292 31.3873 28.216 31.0593 28.216H30.5313C30.1633 28.216 29.8753 28.3 29.6673 28.468C29.4593 28.636 29.3553 28.864 29.3553 29.152C29.3553 29.616 29.5673 29.88 29.9913 29.944L31.6953 30.184C32.8153 30.344 33.3753 31 33.3753 32.152C33.3753 32.768 33.1713 33.248 32.7633 33.592C32.3633 33.928 31.7953 34.096 31.0593 34.096H30.5313ZM37.9906 34.12C37.2146 34.12 36.5866 33.888 36.1066 33.424C35.6346 32.952 35.3986 32.304 35.3986 31.48V29.92C35.3986 29.096 35.6346 28.452 36.1066 27.988C36.5866 27.516 37.2146 27.28 37.9906 27.28C38.5106 27.28 38.9626 27.384 39.3466 27.592C39.7386 27.8 40.0426 28.092 40.2586 28.468C40.4746 28.844 40.5826 29.288 40.5826 29.8V30.976H36.4546V31.6C36.4546 32.088 36.5946 32.476 36.8746 32.764C37.1546 33.044 37.5266 33.184 37.9906 33.184C38.3906 33.184 38.7186 33.108 38.9746 32.956C39.2386 32.796 39.3986 32.584 39.4546 32.32H40.5346C40.4626 32.872 40.1946 33.312 39.7306 33.64C39.2666 33.96 38.6866 34.12 37.9906 34.12ZM36.4546 30.136H39.5266V29.8C39.5266 29.28 39.3906 28.88 39.1186 28.6C38.8546 28.312 38.4786 28.168 37.9906 28.168C37.5026 28.168 37.1226 28.312 36.8506 28.6C36.5866 28.88 36.4546 29.28 36.4546 29.8V30.136ZM50.5933 28.84L50.4973 25.24H51.7213L51.6373 28.84H50.5933ZM53.1373 28.84L53.0413 25.24H54.2653L54.1813 28.84H53.1373ZM59.5766 34.12C59.2806 34.12 59.0406 34.032 58.8566 33.856C58.6806 33.68 58.5926 33.452 58.5926 33.172C58.5926 32.876 58.6806 32.636 58.8566 32.452C59.0406 32.268 59.2806 32.176 59.5766 32.176C59.8726 32.176 60.1086 32.268 60.2846 32.452C60.4686 32.636 60.5606 32.876 60.5606 33.172C60.5606 33.452 60.4686 33.68 60.2846 33.856C60.1086 34.032 59.8726 34.12 59.5766 34.12ZM64.9839 28.84L64.8879 25.24H66.1119L66.0279 28.84H64.9839ZM67.5279 28.84L67.4319 25.24H68.6559L68.5719 28.84H67.5279ZM81.8225 34C81.2785 34 80.8425 33.844 80.5145 33.532C80.1865 33.212 80.0225 32.788 80.0225 32.26V28.384H78.1265V27.4H80.0225V25.54H81.1025V27.4H83.8025V28.384H81.1025V32.26C81.1025 32.484 81.1665 32.668 81.2945 32.812C81.4305 32.948 81.6065 33.016 81.8225 33.016H83.7425V34H81.8225ZM88.3578 34.096C87.5658 34.096 86.9338 33.864 86.4618 33.4C85.9978 32.936 85.7658 32.288 85.7658 31.456V29.944C85.7658 29.104 85.9978 28.456 86.4618 28C86.9258 27.536 87.5578 27.304 88.3578 27.304C89.1578 27.304 89.7898 27.536 90.2538 28C90.7178 28.456 90.9498 29.104 90.9498 29.944V31.456C90.9498 32.288 90.7138 32.936 90.2418 33.4C89.7778 33.864 89.1498 34.096 88.3578 34.096ZM88.3578 33.136C88.8298 33.136 89.1978 33.004 89.4618 32.74C89.7338 32.476 89.8698 32.088 89.8698 31.576V29.824C89.8698 29.312 89.7338 28.924 89.4618 28.66C89.1978 28.396 88.8298 28.264 88.3578 28.264C87.8938 28.264 87.5258 28.396 87.2538 28.66C86.9818 28.924 86.8458 29.312 86.8458 29.824V31.576C86.8458 32.088 86.9818 32.476 87.2538 32.74C87.5258 33.004 87.8938 33.136 88.3578 33.136ZM102.844 34.12C102.044 34.12 101.404 33.896 100.924 33.448C100.444 33 100.204 32.384 100.204 31.6V29.8C100.204 29.016 100.444 28.4 100.924 27.952C101.404 27.504 102.044 27.28 102.844 27.28C103.604 27.28 104.216 27.484 104.68 27.892C105.152 28.3 105.4 28.856 105.424 29.56H104.344C104.32 29.136 104.176 28.812 103.912 28.588C103.648 28.356 103.292 28.24 102.844 28.24C102.372 28.24 101.992 28.376 101.704 28.648C101.424 28.912 101.284 29.292 101.284 29.788V31.6C101.284 32.096 101.424 32.48 101.704 32.752C101.992 33.024 102.372 33.16 102.844 33.16C103.292 33.16 103.648 33.044 103.912 32.812C104.176 32.58 104.32 32.256 104.344 31.84H105.424C105.4 32.544 105.152 33.1 104.68 33.508C104.216 33.916 103.604 34.12 102.844 34.12ZM107.688 34V27.4H108.768V28.66H108.792C108.848 28.236 109.028 27.9 109.332 27.652C109.636 27.404 110.044 27.28 110.556 27.28C111.244 27.28 111.772 27.488 112.14 27.904C112.516 28.312 112.704 28.896 112.704 29.656V30.22H111.624V29.656C111.624 28.696 111.156 28.216 110.22 28.216C109.748 28.216 109.388 28.352 109.14 28.624C108.892 28.896 108.768 29.288 108.768 29.8V34H107.688ZM117.139 34.12C116.363 34.12 115.735 33.888 115.255 33.424C114.783 32.952 114.547 32.304 114.547 31.48V29.92C114.547 29.096 114.783 28.452 115.255 27.988C115.735 27.516 116.363 27.28 117.139 27.28C117.659 27.28 118.111 27.384 118.495 27.592C118.887 27.8 119.191 28.092 119.407 28.468C119.623 28.844 119.731 29.288 119.731 29.8V30.976H115.603V31.6C115.603 32.088 115.743 32.476 116.023 32.764C116.303 33.044 116.675 33.184 117.139 33.184C117.539 33.184 117.867 33.108 118.123 32.956C118.387 32.796 118.547 32.584 118.603 32.32H119.683C119.611 32.872 119.343 33.312 118.879 33.64C118.415 33.96 117.835 34.12 117.139 34.12ZM115.603 30.136H118.675V29.8C118.675 29.28 118.539 28.88 118.267 28.6C118.003 28.312 117.627 28.168 117.139 28.168C116.651 28.168 116.271 28.312 115.999 28.6C115.735 28.88 115.603 29.28 115.603 29.8V30.136ZM123.758 34.12C123.078 34.12 122.538 33.932 122.138 33.556C121.738 33.172 121.538 32.672 121.538 32.056C121.538 31.648 121.63 31.292 121.814 30.988C121.998 30.684 122.254 30.448 122.582 30.28C122.91 30.104 123.286 30.016 123.71 30.016H125.75V29.5C125.75 28.644 125.282 28.216 124.346 28.216C123.93 28.216 123.594 28.292 123.338 28.444C123.082 28.596 122.946 28.808 122.93 29.08H121.85C121.89 28.56 122.13 28.132 122.57 27.796C123.018 27.452 123.61 27.28 124.346 27.28C125.146 27.28 125.758 27.472 126.182 27.856C126.614 28.24 126.83 28.776 126.83 29.464V34H125.762V32.8H125.738C125.674 33.208 125.47 33.532 125.126 33.772C124.782 34.004 124.326 34.12 123.758 34.12ZM124.022 33.208C124.55 33.208 124.97 33.08 125.282 32.824C125.594 32.568 125.75 32.22 125.75 31.78V30.856H123.83C123.478 30.856 123.19 30.964 122.966 31.18C122.75 31.388 122.642 31.668 122.642 32.02C122.642 32.388 122.762 32.68 123.002 32.896C123.25 33.104 123.59 33.208 124.022 33.208ZM132.19 34C131.646 34 131.21 33.844 130.882 33.532C130.554 33.212 130.39 32.788 130.39 32.26V28.384H128.494V27.4H130.39V25.54H131.47V27.4H134.17V28.384H131.47V32.26C131.47 32.484 131.534 32.668 131.662 32.812C131.798 32.948 131.974 33.016 132.19 33.016H134.11V34H132.19ZM138.725 34.12C137.949 34.12 137.321 33.888 136.841 33.424C136.369 32.952 136.133 32.304 136.133 31.48V29.92C136.133 29.096 136.369 28.452 136.841 27.988C137.321 27.516 137.949 27.28 138.725 27.28C139.245 27.28 139.697 27.384 140.081 27.592C140.473 27.8 140.777 28.092 140.993 28.468C141.209 28.844 141.317 29.288 141.317 29.8V30.976H137.189V31.6C137.189 32.088 137.329 32.476 137.609 32.764C137.889 33.044 138.261 33.184 138.725 33.184C139.125 33.184 139.453 33.108 139.709 32.956C139.973 32.796 140.133 32.584 140.189 32.32H141.269C141.197 32.872 140.929 33.312 140.465 33.64C140.001 33.96 139.421 34.12 138.725 34.12ZM137.189 30.136H140.261V29.8C140.261 29.28 140.125 28.88 139.853 28.6C139.589 28.312 139.213 28.168 138.725 28.168C138.237 28.168 137.857 28.312 137.585 28.6C137.321 28.88 137.189 29.28 137.189 29.8V30.136ZM150.536 34V33.016H152.876V28.384H150.776V27.4H153.956V33.016H156.176V34H150.536ZM153.296 26.212C153.032 26.212 152.824 26.144 152.672 26.008C152.52 25.872 152.444 25.688 152.444 25.456C152.444 25.216 152.52 25.028 152.672 24.892C152.824 24.748 153.032 24.676 153.296 24.676C153.56 24.676 153.768 24.748 153.92 24.892C154.072 25.028 154.148 25.216 154.148 25.456C154.148 25.688 154.072 25.872 153.92 26.008C153.768 26.144 153.56 26.212 153.296 26.212ZM157.815 34V27.4H158.895V28.66H158.907C158.963 28.22 159.143 27.88 159.447 27.64C159.751 27.4 160.155 27.28 160.659 27.28C161.323 27.28 161.851 27.484 162.243 27.892C162.635 28.3 162.831 28.856 162.831 29.56V34H161.751V29.752C161.751 29.248 161.623 28.864 161.367 28.6C161.119 28.328 160.779 28.192 160.347 28.192C159.899 28.192 159.543 28.332 159.279 28.612C159.023 28.892 158.895 29.288 158.895 29.8V34H157.815ZM175.362 34C174.818 34 174.382 33.844 174.054 33.532C173.726 33.212 173.562 32.788 173.562 32.26V28.384H171.666V27.4H173.562V25.54H174.642V27.4H177.342V28.384H174.642V32.26C174.642 32.484 174.706 32.668 174.834 32.812C174.97 32.948 175.146 33.016 175.362 33.016H177.282V34H175.362ZM179.401 34V25.24H180.481V28.66H180.493C180.549 28.22 180.729 27.88 181.033 27.64C181.337 27.4 181.741 27.28 182.245 27.28C182.909 27.28 183.437 27.484 183.829 27.892C184.221 28.3 184.417 28.856 184.417 29.56V34H183.337V29.74C183.337 29.244 183.209 28.864 182.953 28.6C182.705 28.328 182.365 28.192 181.933 28.192C181.485 28.192 181.129 28.332 180.865 28.612C180.609 28.892 180.481 29.288 180.481 29.8V34H179.401ZM186.512 34V33.016H188.852V28.384H186.752V27.4H189.932V33.016H192.152V34H186.512ZM189.272 26.212C189.008 26.212 188.8 26.144 188.648 26.008C188.496 25.872 188.42 25.688 188.42 25.456C188.42 25.216 188.496 25.028 188.648 24.892C188.8 24.748 189.008 24.676 189.272 24.676C189.536 24.676 189.744 24.748 189.896 24.892C190.048 25.028 190.124 25.216 190.124 25.456C190.124 25.688 190.048 25.872 189.896 26.008C189.744 26.144 189.536 26.212 189.272 26.212ZM196.024 34.096C195.288 34.096 194.716 33.932 194.308 33.604C193.908 33.268 193.708 32.796 193.708 32.188H194.788C194.788 32.492 194.896 32.732 195.112 32.908C195.328 33.076 195.632 33.16 196.024 33.16H196.552C196.952 33.16 197.26 33.072 197.476 32.896C197.7 32.72 197.812 32.472 197.812 32.152C197.812 31.584 197.552 31.264 197.032 31.192L195.208 30.928C194.76 30.864 194.412 30.68 194.164 30.376C193.916 30.064 193.792 29.656 193.792 29.152C193.792 28.576 193.988 28.124 194.38 27.796C194.78 27.468 195.328 27.304 196.024 27.304H196.552C197.192 27.304 197.712 27.464 198.112 27.784C198.52 28.096 198.74 28.508 198.772 29.02H197.68C197.664 28.788 197.552 28.596 197.344 28.444C197.144 28.292 196.88 28.216 196.552 28.216H196.024C195.656 28.216 195.368 28.3 195.16 28.468C194.952 28.636 194.848 28.864 194.848 29.152C194.848 29.616 195.06 29.88 195.484 29.944L197.188 30.184C198.308 30.344 198.868 31 198.868 32.152C198.868 32.768 198.664 33.248 198.256 33.592C197.856 33.928 197.288 34.096 196.552 34.096H196.024ZM210.294 34.12C209.638 34.12 209.11 33.9 208.71 33.46C208.318 33.02 208.122 32.424 208.122 31.672V29.74C208.122 28.98 208.318 28.38 208.71 27.94C209.102 27.5 209.63 27.28 210.294 27.28C210.79 27.28 211.198 27.404 211.518 27.652C211.846 27.9 212.042 28.236 212.106 28.66H212.118L212.094 27.16V25.24H213.174V34H212.094V32.74H212.082C212.026 33.172 211.838 33.512 211.518 33.76C211.198 34 210.79 34.12 210.294 34.12ZM210.654 33.184C211.102 33.184 211.454 33.044 211.71 32.764C211.966 32.484 212.094 32.096 212.094 31.6V29.8C212.094 29.304 211.966 28.916 211.71 28.636C211.454 28.356 211.102 28.216 210.654 28.216C210.198 28.216 209.842 28.336 209.586 28.576C209.33 28.808 209.202 29.196 209.202 29.74V31.66C209.202 32.196 209.33 32.584 209.586 32.824C209.842 33.064 210.198 33.184 210.654 33.184ZM215.293 34V33.016H217.633V28.384H215.533V27.4H218.713V33.016H220.933V34H215.293ZM218.053 26.212C217.789 26.212 217.581 26.144 217.429 26.008C217.277 25.872 217.201 25.688 217.201 25.456C217.201 25.216 217.277 25.028 217.429 24.892C217.581 24.748 217.789 24.676 218.053 24.676C218.317 24.676 218.525 24.748 218.677 24.892C218.829 25.028 218.905 25.216 218.905 25.456C218.905 25.688 218.829 25.872 218.677 26.008C218.525 26.144 218.317 26.212 218.053 26.212ZM222.813 34V27.4H223.893V28.66H223.917C223.973 28.236 224.153 27.9 224.457 27.652C224.761 27.404 225.169 27.28 225.681 27.28C226.369 27.28 226.897 27.488 227.265 27.904C227.641 28.312 227.829 28.896 227.829 29.656V30.22H226.749V29.656C226.749 28.696 226.281 28.216 225.345 28.216C224.873 28.216 224.513 28.352 224.265 28.624C224.017 28.896 223.893 29.288 223.893 29.8V34H222.813ZM232.264 34.12C231.488 34.12 230.86 33.888 230.38 33.424C229.908 32.952 229.672 32.304 229.672 31.48V29.92C229.672 29.096 229.908 28.452 230.38 27.988C230.86 27.516 231.488 27.28 232.264 27.28C232.784 27.28 233.236 27.384 233.62 27.592C234.012 27.8 234.316 28.092 234.532 28.468C234.748 28.844 234.856 29.288 234.856 29.8V30.976H230.728V31.6C230.728 32.088 230.868 32.476 231.148 32.764C231.428 33.044 231.8 33.184 232.264 33.184C232.664 33.184 232.992 33.108 233.248 32.956C233.512 32.796 233.672 32.584 233.728 32.32H234.808C234.736 32.872 234.468 33.312 234.004 33.64C233.54 33.96 232.96 34.12 232.264 34.12ZM230.728 30.136H233.8V29.8C233.8 29.28 233.664 28.88 233.392 28.6C233.128 28.312 232.752 28.168 232.264 28.168C231.776 28.168 231.396 28.312 231.124 28.6C230.86 28.88 230.728 29.28 230.728 29.8V30.136ZM239.555 34.12C238.755 34.12 238.115 33.896 237.635 33.448C237.155 33 236.915 32.384 236.915 31.6V29.8C236.915 29.016 237.155 28.4 237.635 27.952C238.115 27.504 238.755 27.28 239.555 27.28C240.315 27.28 240.927 27.484 241.391 27.892C241.863 28.3 242.111 28.856 242.135 29.56H241.055C241.031 29.136 240.887 28.812 240.623 28.588C240.359 28.356 240.003 28.24 239.555 28.24C239.083 28.24 238.703 28.376 238.415 28.648C238.135 28.912 237.995 29.292 237.995 29.788V31.6C237.995 32.096 238.135 32.48 238.415 32.752C238.703 33.024 239.083 33.16 239.555 33.16C240.003 33.16 240.359 33.044 240.623 32.812C240.887 32.58 241.031 32.256 241.055 31.84H242.135C242.111 32.544 241.863 33.1 241.391 33.508C240.927 33.916 240.315 34.12 239.555 34.12ZM247.315 34C246.771 34 246.335 33.844 246.007 33.532C245.679 33.212 245.515 32.788 245.515 32.26V28.384H243.619V27.4H245.515V25.54H246.595V27.4H249.295V28.384H246.595V32.26C246.595 32.484 246.659 32.668 246.787 32.812C246.923 32.948 247.099 33.016 247.315 33.016H249.235V34H247.315ZM253.85 34.096C253.058 34.096 252.426 33.864 251.954 33.4C251.49 32.936 251.258 32.288 251.258 31.456V29.944C251.258 29.104 251.49 28.456 251.954 28C252.418 27.536 253.05 27.304 253.85 27.304C254.65 27.304 255.282 27.536 255.746 28C256.21 28.456 256.442 29.104 256.442 29.944V31.456C256.442 32.288 256.206 32.936 255.734 33.4C255.27 33.864 254.642 34.096 253.85 34.096ZM253.85 33.136C254.322 33.136 254.69 33.004 254.954 32.74C255.226 32.476 255.362 32.088 255.362 31.576V29.824C255.362 29.312 255.226 28.924 254.954 28.66C254.69 28.396 254.322 28.264 253.85 28.264C253.386 28.264 253.018 28.396 252.746 28.66C252.474 28.924 252.338 29.312 252.338 29.824V31.576C252.338 32.088 252.474 32.476 252.746 32.74C253.018 33.004 253.386 33.136 253.85 33.136ZM258.789 34V27.4H259.869V28.66H259.893C259.949 28.236 260.129 27.9 260.433 27.652C260.737 27.404 261.145 27.28 261.657 27.28C262.345 27.28 262.873 27.488 263.241 27.904C263.617 28.312 263.805 28.896 263.805 29.656V30.22H262.725V29.656C262.725 28.696 262.257 28.216 261.321 28.216C260.849 28.216 260.489 28.352 260.241 28.624C259.993 28.896 259.869 29.288 259.869 29.8V34H258.789ZM266.777 36.16L267.749 33.592L265.289 27.4H266.453L268.013 31.48C268.077 31.64 268.137 31.808 268.193 31.984C268.249 32.16 268.289 32.312 268.313 32.44C268.337 32.312 268.377 32.16 268.433 31.984C268.489 31.808 268.545 31.64 268.601 31.48L270.053 27.4H271.193L267.905 36.16H266.777Z" fill="#727272"/>
<path d="M7 48.16V38.56H8.2V46.96H11.44V48.16H7Z" fill="#0FA8CD"/>
</svg>
